<svg xmlns="http://www.w3.org/2000/svg" viewBox="0 0 160 160" role="img" aria-labelledby="title desc">
  <title id="title">Ask Qalqilya logo</title>
  <desc id="desc">Blue rounded map marker logo for Ask Qalqilya</desc>
  <rect width="160" height="160" rx="36" fill="#2563EB"/>
  <circle cx="80" cy="64" r="32" fill="#FFFFFF"/>
  <path d="M80 24c-28 0-50 22-50 50 0 37 50 68 50 68s50-31 50-68c0-28-22-50-50-50Zm0 68c-15 0-28-13-28-28s13-28 28-28 28 13 28 28-13 28-28 28Z" fill="#FFFFFF" fill-opacity=".26"/>
  <path d="M55 104h50v12H55z" fill="#16A34A"/>
  <path d="M64 92h32v12H64z" fill="#EA580C"/>
  <text x="80" y="77" text-anchor="middle" font-size="48" font-weight="800" font-family="Arial, sans-serif" fill="#2563EB">س</text>
</svg>
